<?xml version="1.0" standalone="no"?><!DOCTYPE svg PUBLIC "-//W3C//DTD SVG 1.1//EN" "http://www.w3.org/Graphics/SVG/1.1/DTD/svg11.dtd"><svg t="1641967717903" class="icon" viewBox="0 0 1024 1024" version="1.1" xmlns="http://www.w3.org/2000/svg" p-id="7780" xmlns:xlink="http://www.w3.org/1999/xlink" width="200" height="200"><defs><style type="text/css"></style></defs><path d="M513.2 898.3c-106.4 0-206.6-9.2-282.3-26.1-88.9-19.9-137.4-47.5-132-83.3 3.7-25 19.5-37.2 58.5-51.6 32.6-12 96.8-27.2 148.5-35.6 12-2 21.4 5.4 23.4 17.3 2 12-6.4 21-18.3 23-44.4 7.2-105.8 20.8-132 31.2-29 11.5-26.2 14.8-26.2 17 0 1.8 0.6 8.9 20.4 18.2 19.2 9 47 17.4 80.4 24.5 71.7 15 165.6 23.3 264.7 23.3 99 0 193-8.3 264.7-23.3 33.5-7 61.3-15.5 80.4-24.5 19.9-9.2 16.2-16.2 17-17.8-1-2-3.7-5.9-32.7-17.3-26.2-10.4-82.4-23.7-126.7-30.9-12-2-20.3-10.3-18.4-22.3 2-12 12.4-20.3 24.4-18.4 51.7 8.3 109 24.3 142 35.5 39.3 13.3 54.8 26.6 58.6 51.8 5.4 35.8-43.2 63.5-132.2 83.2-75.6 16.9-175.8 26.1-282.2 26.1z" fill="#00cacc" p-id="7781"></path><path d="M510.8 98.2c-134.1 0-239.5 108.4-239.3 242.4 0 4 0.1 8.2 0.3 12.3 1.4 28.6 10.2 57.2 21.4 83.4v0.1l17.9 34.5c1.5 2.9 148.7 277.2 165.1 303.1 9.2 14.5 24.6 20.7 35.5 20.7 10.6 0 27.6-5.7 35.3-20.7 12.3-24 175.8-303.1 175.8-303.1s15.2-26.2 18.7-34.6c13.4-31.7 18.9-49.2 20.3-83.7 0.1-3.6 0.2-9.4 0.2-12.3C761.9 206 644.9 98.2 510.8 98.2z m2.4 368.9c-74.2 0-134.3-60.1-134.3-134.3 0-74.2 60.1-134.3 134.3-134.3 74.2 0 134.3 60.1 134.3 134.3 0 74.2-60.1 134.3-134.3 134.3z" fill="#00cacc" p-id="7782"></path></svg>