<?xml version="1.0" standalone="no"?><!DOCTYPE svg PUBLIC "-//W3C//DTD SVG 1.1//EN" "http://www.w3.org/Graphics/SVG/1.1/DTD/svg11.dtd"><svg t="1641447942480" class="icon" viewBox="0 0 1024 1024" version="1.1" xmlns="http://www.w3.org/2000/svg" p-id="3427" xmlns:xlink="http://www.w3.org/1999/xlink" width="200" height="200"><defs><style type="text/css"></style></defs><path d="M737.6896 923.136c-12.6976 0-25.7024-3.4816-38.6048-10.24L530.6368 824.32c-7.8848-4.1984-29.5936-4.096-37.376 0l-168.448 88.576c-32.1536 16.7936-67.1744 11.9808-87.4496-12.0832-9.4208-11.1616-19.6608-31.0272-14.336-61.8496l32.1536-187.4944c1.6384-9.728-4.5056-28.672-11.5712-35.5328L107.52 483.0208c-21.7088-21.1968-29.9008-48.5376-21.9136-73.216 8.0896-24.6784 30.8224-41.984 60.8256-46.3872l188.3136-27.3408c9.728-1.4336 25.9072-13.1072 30.3104-22.016l84.1728-170.5984c13.4144-27.2384 36.9664-43.52 62.8736-43.52 26.0096 0 49.4592 16.2816 62.976 43.52l84.1728 170.5984c4.4032 8.8064 20.48 20.5824 30.208 22.016L877.568 363.4176c30.0032 4.4032 52.736 21.7088 60.8256 46.3872 8.0896 24.7808-0.1024 52.1216-21.9136 73.3184L780.288 615.8336c-7.0656 6.8608-13.2096 25.8048-11.5712 35.5328l32.1536 187.4944c5.3248 30.8224-4.9152 50.688-14.336 61.8496C774.3488 915.2512 757.0432 923.136 737.6896 923.136zM512 775.0656c14.7456 0 29.3888 2.7648 40.1408 8.3968l168.448 88.576c10.9568 5.7344 21.2992 10.3424 30.72-0.9216 4.5056-5.3248 5.9392-13.824 4.1984-24.4736l-32.1536-187.4944c-4.3008-24.6784 6.8608-58.88 24.7808-76.3904l136.192-132.8128c4.3008-4.1984 13.824-14.9504 10.24-26.0096-3.584-10.9568-17.7152-14.1312-23.552-15.0528l-188.2112-27.3408c-24.7808-3.584-53.8624-24.7808-64.9216-47.2064L533.6064 163.84c-2.6624-5.3248-10.0352-17.8176-21.6064-17.8176-11.5712 0-18.944 12.3904-21.504 17.8176l-84.2752 170.7008c-11.0592 22.4256-40.2432 43.6224-65.024 47.2064l-188.2112 27.3408c-5.9392 0.8192-20.0704 4.096-23.6544 15.0528-3.584 10.9568 5.9392 21.8112 10.24 25.9072l136.2944 132.9152c17.92 17.408 29.0816 51.712 24.7808 76.3904L268.4928 846.848c-1.8432 10.5472-0.4096 19.0464 4.1984 24.3712 7.3728 8.704 20.6848 6.2464 30.72 0.9216l168.448-88.576C482.5088 777.9328 497.2544 775.0656 512 775.0656z" p-id="3428"></path></svg>