<?xml version="1.0" standalone="no"?><!DOCTYPE svg PUBLIC "-//W3C//DTD SVG 1.1//EN" "http://www.w3.org/Graphics/SVG/1.1/DTD/svg11.dtd"><svg t="1643176659494" class="icon" viewBox="0 0 1024 1024" version="1.1" xmlns="http://www.w3.org/2000/svg" p-id="2364" xmlns:xlink="http://www.w3.org/1999/xlink" width="200" height="200"><defs><style type="text/css"></style></defs><path d="M512 1002.7008c-92.8768 0-168.3456-63.3856-168.3456-141.312L343.6544 617.2672c-107.008-57.4464-172.9536-163.9424-172.9536-280.7808 0-140.0832 94.5152-263.3728 235.3152-306.8928l26.7264-8.2944-0.9216 176.64c0 37.4784 36.0448 67.8912 80.2816 67.8912s80.2816-30.5152 80.2816-67.8912l-0.7168-174.7968 26.4192 6.5536C758.784 73.1136 853.2992 196.5056 853.2992 336.4864c0 116.8384-65.9456 223.3344-172.9536 280.7808l0 244.0192C680.3456 939.3152 604.7744 1002.7008 512 1002.7008zM391.5776 77.6192c-109.1584 44.544-180.736 145.6128-180.736 258.8672 0 105.2672 61.952 201.216 161.6896 250.368l11.264 5.5296 0 269.0048c0 55.7056 57.5488 100.9664 128.2048 100.9664 70.656 0 128.2048-45.2608 128.2048-100.9664L640.2048 592.384l11.264-5.5296c99.7376-49.0496 161.792-144.9984 161.792-250.368 0-113.4592-71.68-214.528-180.9408-259.072l0.2048 120.4224c0 59.6992-54.0672 108.3392-120.4224 108.3392s-120.4224-48.5376-120.4224-108.3392L391.68 77.6192z" p-id="2365"></path></svg>