<?xml version="1.0" standalone="no"?><!DOCTYPE svg PUBLIC "-//W3C//DTD SVG 1.1//EN" "http://www.w3.org/Graphics/SVG/1.1/DTD/svg11.dtd"><svg t="1641447766010" class="icon" viewBox="0 0 1024 1024" version="1.1" xmlns="http://www.w3.org/2000/svg" p-id="2997" xmlns:xlink="http://www.w3.org/1999/xlink" width="200" height="200"><defs><style type="text/css"></style></defs><path d="M888.37 698.15c-33.83-36.33-97.11-91.01-97.11-270.13 0.08-132.57-93.96-246.54-224.13-271.64V119.9c0-30.95-25.09-56.03-56.03-56.03s-56.03 25.09-56.03 56.03v36.48c-130.17 25.1-224.21 139.07-224.13 271.64 0 179.1-63.29 233.77-97.11 270.13a54.742 54.742 0 0 0-14.72 38.1c0 30.95 25.09 56.03 56.03 56.03H847.24c30.95 0.16 56.16-24.79 56.33-55.74v-0.3a54.68 54.68 0 0 0-15.07-38.01l-0.13-0.08z m-651.03 10c37.16-48.95 77.77-130.14 77.97-279.1v-1c0-108.31 87.8-196.11 196.11-196.11s196.11 87.8 196.11 196.11v1c0.21 148.99 40.82 230.03 77.97 279.1H237.34z m274 252.24c61.89 0 112.06-50.17 112.06-112.06H399.27c0 61.88 50.17 112.06 112.07 112.06z" p-id="2998"></path></svg>