<?xml version="1.0" standalone="no"?><!DOCTYPE svg PUBLIC "-//W3C//DTD SVG 1.1//EN" "http://www.w3.org/Graphics/SVG/1.1/DTD/svg11.dtd"><svg t="1641447882839" class="icon" viewBox="0 0 1024 1024" version="1.1" xmlns="http://www.w3.org/2000/svg" p-id="3128" xmlns:xlink="http://www.w3.org/1999/xlink" width="200" height="200"><defs><style type="text/css"></style></defs><path d="M281.6 359.2192c0 29.184 26.0096 50.3808 61.8496 50.3808l336.9984 0c35.84 0 61.8496-21.1968 61.8496-50.3808 0-53.76-34.9184-98.5088-103.7312-133.12L638.5664 204.8l0-9.8304c0-14.5408-2.3552-28.2624-5.7344-41.3696C617.5744 93.9008 570.2656 51.2 512 51.2S406.4256 93.9008 391.0656 153.6c-3.3792 13.1072-5.7344 26.8288-5.7344 41.3696l0 9.8304 0 21.2992C316.416 260.7104 281.6 305.4592 281.6 359.2192zM421.376 265.5232l15.0528-6.7584L436.4288 204.8l0-9.8304c0-14.1312 2.8672-28.2624 7.9872-41.3696 11.1616-28.5696 33.8944-51.2 67.4816-51.2s56.4224 22.6304 67.4816 51.2c5.12 13.1072 7.9872 27.3408 7.9872 41.3696l0 9.8304 0 53.9648 15.0528 6.7584c59.5968 26.9312 88.576 57.5488 90.112 90.0096-1.1264 1.024-5.9392 2.7648-12.1856 2.7648L343.4496 358.2976c-5.8368 0-10.3424-1.536-10.6496 0.3072C333.1072 322.8672 362.0864 292.352 421.376 265.5232z" p-id="3129"></path><path d="M707.072 661.6064c0-10.752-8.8064-19.456-19.456-19.456L336.4864 642.1504c-10.752 0-19.5584 8.8064-19.5584 19.456s8.8064 19.456 19.5584 19.456l351.0272 0C698.2656 681.1648 707.072 672.3584 707.072 661.6064z" p-id="3130"></path><path d="M336.4864 751.8208c-10.752 0-19.5584 8.8064-19.5584 19.456 0 10.752 8.8064 19.456 19.5584 19.456L531.456 790.7328c10.752 0 19.5584-8.8064 19.5584-19.456 0-10.752-8.8064-19.456-19.5584-19.456L336.4864 751.8208z" p-id="3131"></path><path d="M687.5136 532.3776 336.4864 532.3776c-10.752 0-19.5584 8.8064-19.5584 19.456 0 10.752 8.8064 19.456 19.5584 19.456l351.0272 0c10.752 0 19.456-8.8064 19.456-19.456C707.072 541.184 698.2656 532.3776 687.5136 532.3776z" p-id="3132"></path><path d="M750.8992 153.6l-66.7648 0c3.3792 13.1072 5.7344 26.8288 5.7344 41.3696l0 6.8608 61.0304 0c39.5264 0 71.68 32.4608 71.68 72.2944l0 578.2528c0 39.8336-32.1536 72.2944-71.68 72.2944L273.1008 924.672c-39.5264 0-71.68-32.4608-71.68-72.2944L201.4208 274.0224c0-39.8336 32.1536-72.2944 71.68-72.2944l61.0304 0 0-6.8608c0-14.5408 2.3552-28.2624 5.7344-41.3696l-66.7648 0C207.1552 153.6 153.6 207.6672 153.6 274.0224l0 578.2528c0 66.4576 53.5552 120.4224 119.5008 120.4224l477.9008 0c65.8432 0 119.5008-54.0672 119.5008-120.4224L870.5024 274.0224C870.4 207.6672 816.8448 153.6 750.8992 153.6z" p-id="3133"></path></svg>