<?xml version="1.0" standalone="no"?><!DOCTYPE svg PUBLIC "-//W3C//DTD SVG 1.1//EN" "http://www.w3.org/Graphics/SVG/1.1/DTD/svg11.dtd"><svg t="1641454280307" class="icon" viewBox="0 0 1024 1024" version="1.1" xmlns="http://www.w3.org/2000/svg" p-id="2154" xmlns:xlink="http://www.w3.org/1999/xlink" width="200" height="200"><defs><style type="text/css"></style></defs><path d="M302.545 896c18.619 0 34.91 16.29 34.91 34.91s-16.291 34.908-34.91 34.908H186.182c-69.818 0-128-58.182-128-128V721.455c0-18.619 16.29-34.91 34.909-34.91S128 702.836 128 721.455v116.363C128 870.4 153.6 896 186.182 896h116.363zM896 721.455c0-18.619 16.29-34.91 34.91-34.91s34.908 16.291 34.908 34.91v116.363c0 69.818-58.182 128-128 128H721.455c-18.619 0-34.91-16.29-34.91-34.909S702.836 896 721.455 896h116.363C870.4 896 896 870.4 896 837.818V721.455zM721.455 128c-18.619 0-34.91-16.29-34.91-34.91s16.291-34.908 34.91-34.908h116.363c69.818 0 128 58.182 128 128v139.636c0 18.618-16.29 34.91-34.909 34.91S896 344.435 896 325.817V186.182C896 153.6 870.4 128 837.818 128H721.455zM128 302.545c0 18.619-16.29 34.91-34.91 34.91s-34.908-16.291-34.908-34.91V186.182c0-69.818 58.182-128 128-128h116.363c18.619 0 34.91 16.29 34.91 34.909S321.164 128 302.545 128H186.182C153.6 128 128 153.6 128 186.182v116.363zM279.273 546.91c-18.618 0-34.91-16.29-34.91-34.909s16.292-34.91 34.91-34.91h465.454c18.618 0 34.91 16.292 34.91 34.91s-16.292 34.91-34.91 34.91H279.273z" p-id="2155"></path></svg>