<?xml version="1.0" standalone="no"?><!DOCTYPE svg PUBLIC "-//W3C//DTD SVG 1.1//EN" "http://www.w3.org/Graphics/SVG/1.1/DTD/svg11.dtd"><svg t="1641447854717" class="icon" viewBox="0 0 1024 1024" version="1.1" xmlns="http://www.w3.org/2000/svg" p-id="2686" xmlns:xlink="http://www.w3.org/1999/xlink" width="200" height="200"><defs><style type="text/css"></style></defs><path d="M320 486.0928c-11.776 0-21.2992 8.704-21.2992 19.456l0 109.1584L144.384 614.7072c-9.1136 0-16.384 9.6256-16.384 21.4016 0 11.8784 7.3728 21.4016 16.384 21.4016l180.5312 0c6.0416 0 11.1616-4.5056 13.9264-10.8544 0.3072-0.6144 0.7168-1.1264 0.9216-1.8432 0.2048-0.7168 0.3072-1.536 0.512-2.2528 0.4096-1.536 1.024-2.9696 1.024-4.5056L341.2992 505.6512C341.2992 494.8992 331.776 486.0928 320 486.0928z" p-id="2687"></path><path d="M923.7504 64 407.4496 64c-43.52 0-78.9504 35.9424-78.9504 80.1792l0 229.1712L194.56 373.3504c-90.4192 0-165.888 71.2704-172.4416 160.6656l-0.7168 271.872c0 44.1344 35.4304 80.0768 78.9504 80.0768l58.6752 0 0 6.8608c0 37.6832 37.4784 67.2768 85.2992 67.2768s85.2992-29.4912 85.2992-67.2768l0-6.8608 364.8512 0 0 6.8608c0 37.6832 37.4784 67.2768 85.2992 67.2768 47.8208 0 85.2992-29.4912 85.2992-67.2768l0-6.8608 58.6752 0c43.52 0 78.9504-35.9424 78.9504-80.0768L1002.7008 144.1792C1002.7008 99.9424 967.2704 64 923.7504 64zM960 805.7856c0 20.6848-16.2816 37.4784-36.2496 37.4784l-101.376 0 0 49.5616c0 11.6736-18.2272 24.576-42.7008 24.576-24.3712 0-42.7008-13.0048-42.7008-24.576l0-49.4592L286.9248 843.3664l0 49.4592c0 11.6736-18.2272 24.576-42.7008 24.576s-42.7008-13.0048-42.7008-24.576l0-49.4592-101.376 0c-19.968 0-36.2496-16.7936-36.2496-37.4784L63.8976 626.7904l0.3072-82.7392c1.3312-70.656 59.8016-128.1024 130.2528-128.1024l176.64 0L371.0976 144.1792c0-20.6848 16.2816-37.4784 36.2496-37.4784l516.3008 0c19.968 0 36.2496 16.7936 36.2496 37.4784L959.8976 805.7856z" p-id="2688"></path></svg>