<?xml version="1.0" standalone="no"?><!DOCTYPE svg PUBLIC "-//W3C//DTD SVG 1.1//EN" "http://www.w3.org/Graphics/SVG/1.1/DTD/svg11.dtd"><svg t="1642649785874" class="icon" viewBox="0 0 1024 1024" version="1.1" xmlns="http://www.w3.org/2000/svg" p-id="1821" xmlns:xlink="http://www.w3.org/1999/xlink" width="200" height="200"><defs><style type="text/css"></style></defs><path d="M745.5744 21.2992 377.344 21.2992c-62.464 0-113.3568 50.2784-113.3568 112.0256l0 22.4256L198.656 155.7504c-62.464 0-113.3568 50.2784-113.3568 112.0256l0 622.8992c0 61.7472 50.8928 112.0256 113.3568 112.0256l490.7008 0c62.464 0 113.3568-50.2784 113.3568-112.0256l0-22.4256L825.344 868.2496c62.464 0 113.3568-50.2784 113.3568-112.0256L938.7008 259.8912 745.5744 21.2992zM757.3504 890.6752c0 37.0688-30.5152 67.1744-67.9936 67.1744L198.656 957.8496c-37.4784 0-67.9936-30.1056-67.9936-67.1744L130.6624 267.776c0-37.0688 30.5152-67.1744 67.9936-67.1744l65.3312 0 0 555.7248c0 61.7472 50.7904 112.0256 113.3568 112.0256l380.0064 0L757.3504 890.6752zM893.3376 756.224c0 37.0688-30.5152 67.1744-67.9936 67.1744l-22.6304 0-45.3632 0L377.344 823.3984c-37.4784 0-67.9936-30.1056-67.9936-67.1744L309.3504 200.4992l0-44.7488 0-22.4256c0-37.0688 30.5152-67.1744 67.9936-67.1744l346.4192 0 169.5744 209.408L893.3376 756.224z" p-id="1822"></path><path d="M735.1296 517.3248 467.5584 517.3248c-8.9088 0-16.2816 7.2704-16.2816 16.2816l0 1.6384c0 8.9088 7.2704 16.2816 16.2816 16.2816l267.5712 0c8.9088 0 16.2816-7.2704 16.2816-16.2816l0-1.6384C751.4112 524.6976 744.0384 517.3248 735.1296 517.3248z" p-id="1823"></path><path d="M451.2768 437.5552l0 1.6384c0 8.9088 7.2704 16.2816 16.2816 16.2816l267.5712 0c8.9088 0 16.2816-7.2704 16.2816-16.2816l0-1.6384c0-8.9088-7.2704-16.2816-16.2816-16.2816L467.5584 421.2736C458.6496 421.376 451.2768 428.6464 451.2768 437.5552z" p-id="1824"></path></svg>