<?xml version="1.0" standalone="no"?><!DOCTYPE svg PUBLIC "-//W3C//DTD SVG 1.1//EN" "http://www.w3.org/Graphics/SVG/1.1/DTD/svg11.dtd"><svg t="1640771917860" class="icon" viewBox="0 0 1024 1024" version="1.1" xmlns="http://www.w3.org/2000/svg" p-id="1599" xmlns:xlink="http://www.w3.org/1999/xlink" width="200" height="200"><defs><style type="text/css"></style></defs><path d="M511.419733 68.266667C393.557333 68.266667 317.627733 117.9648 281.258667 201.7792c-23.261867 53.623467-27.306667 110.3872-21.896534 163.874133l0.682667 5.768534c6.519467 50.4832 32.1536 110.762667 68.864 154.555733l2.116267 2.474667L143.872 685.5168A68.266667 68.266667 0 0 0 119.466667 737.792v149.674667a68.266667 68.266667 0 0 0 68.266666 68.266666h648.533334a68.266667 68.266667 0 0 0 68.266666-68.266666v-149.623467l-0.119466-4.027733a68.266667 68.266667 0 0 0-24.405334-48.384L694.954667 531.012267l2.850133-3.1232c38.178133-43.485867 62.464-101.700267 70.485333-161.1264 7.236267-53.930667 2.167467-116.5312-23.517866-170.7008C706.56 115.421867 629.2992 68.266667 511.419733 68.266667z m0 68.266666c91.921067 0 144.9472 32.3584 171.6736 88.746667 19.114667 40.362667 23.176533 90.385067 17.527467 132.386133-7.901867 58.760533-36.1472 115.7632-77.943467 147.541334a34.133333 34.133333 0 0 0-1.211733 53.384533L836.266667 737.860267V887.466667H187.733333v-149.6576l216.064-181.282134a34.133333 34.133333 0 0 0-0.887466-53.009066c-39.133867-30.685867-70.775467-97.058133-75.605334-144.759467-4.352-42.888533-1.0752-89.122133 16.5888-129.809067C369.408 170.120533 420.693333 136.533333 511.419733 136.533333z" fill="#444444" p-id="1600"></path><path d="M546.133333 648.533333v170.666667h-68.266666V648.533333a34.133333 34.133333 0 1 1 68.266666 0z" fill="#00B386" p-id="1601"></path></svg>