<?xml version="1.0" standalone="no"?><!DOCTYPE svg PUBLIC "-//W3C//DTD SVG 1.1//EN" "http://www.w3.org/Graphics/SVG/1.1/DTD/svg11.dtd"><svg t="1642127020376" class="icon" viewBox="0 0 1024 1024" version="1.1" xmlns="http://www.w3.org/2000/svg" p-id="2119" xmlns:xlink="http://www.w3.org/1999/xlink" width="200" height="200"><defs><style type="text/css"></style></defs><path d="M211.2 697.6c19.2 6.4 38.4 19.2 38.4 19.2 6.4 6.4 6.4 12.8 6.4 19.2 0 6.4-6.4 12.8-12.8 19.2-6.4 6.4-19.2 6.4-32 6.4-25.6 0-44.8-6.4-64-25.6l0 44.8c19.2 6.4 38.4 12.8 64 12.8 25.6 0 51.2-6.4 64-19.2 12.8-12.8 25.6-25.6 25.6-51.2 0-12.8-6.4-25.6-12.8-38.4s-25.6-19.2-44.8-32c-19.2-6.4-32-12.8-38.4-19.2C211.2 640 211.2 640 211.2 633.6c0-6.4 6.4-12.8 12.8-19.2 6.4-6.4 19.2-6.4 25.6-6.4 19.2 0 38.4 6.4 51.2 12.8L300.8 576C288 569.6 268.8 569.6 243.2 569.6c-25.6 0-44.8 6.4-64 19.2S160 614.4 160 633.6C160 665.6 172.8 684.8 211.2 697.6z" p-id="2120" fill="#00cacc"></path><path d="M390.4 748.8l83.2 0 19.2 51.2 51.2 0L460.8 576 403.2 576 320 800l51.2 0L390.4 748.8zM428.8 633.6c0-6.4 6.4-12.8 6.4-19.2l0 0c0 6.4 0 12.8 6.4 19.2l25.6 76.8L403.2 710.4 428.8 633.6z" p-id="2121" fill="#00cacc"></path><path d="M704 755.2 620.8 755.2 620.8 576 569.6 576 569.6 800 704 800Z" p-id="2122" fill="#00cacc"></path><path d="M864 755.2 780.8 755.2 780.8 704 851.2 704 851.2 665.6 780.8 665.6 780.8 614.4 857.6 614.4 857.6 576 729.6 576 729.6 800 864 800Z" p-id="2123" fill="#00cacc"></path><path d="M384 83.2l256 0 0 51.2-256 0 0-51.2Z" p-id="2124" fill="#00cacc"></path><path d="M902.4 83.2l-128 0L774.4 128l128 0c38.4 0 76.8 32 76.8 76.8l0 185.6L51.2 390.4 51.2 204.8C51.2 166.4 83.2 128 121.6 128l115.2 0L236.8 83.2 121.6 83.2C57.6 83.2 0 134.4 0 204.8l0 652.8c0 70.4 57.6 121.6 121.6 121.6l774.4 0c70.4 0 121.6-57.6 121.6-121.6L1017.6 204.8C1024 134.4 966.4 83.2 902.4 83.2zM972.8 857.6c0 38.4-32 76.8-76.8 76.8L121.6 934.4c-38.4 0-76.8-32-76.8-76.8L44.8 441.6l928 0L972.8 857.6z" p-id="2125" fill="#00cacc"></path><path d="M313.6 192c12.8 0 25.6-12.8 25.6-25.6L339.2 25.6C339.2 12.8 326.4 0 313.6 0 300.8 0 288 12.8 288 25.6l0 140.8C288 179.2 300.8 192 313.6 192z" p-id="2126" fill="#00cacc"></path><path d="M710.4 192c12.8 0 25.6-12.8 25.6-25.6L736 25.6c0-12.8-12.8-25.6-25.6-25.6-12.8 0-25.6 12.8-25.6 25.6l0 140.8C684.8 179.2 697.6 192 710.4 192z" p-id="2127" fill="#00cacc"></path></svg>