<svg xmlns="http://www.w3.org/2000/svg" fill="none" viewBox="0 0 110 110" height="110" width="110">
<mask height="110" width="110" y="0" x="0" maskUnits="userSpaceOnUse" style="mask-type:alpha" id="mask0_3:135">
<rect fill="#C4C4C4" height="110" width="110"></rect>
</mask>
<g mask="url(#mask0_3:135)">
<path fill="#FFB5B5" d="M47.645 85.1166C47.645 85.1166 47.7885 90.5831 46.8576 93.6029C44.7276 100.713 26.6261 98.345 25.7943 102.727C29.227 103.652 89.4384 110.771 88.0612 105.195C83.8571 95.3914 68.7623 103.983 61.2685 93.6029C60.1748 90.9905 61.032 84 61.032 84L47.645 85.1166Z" clip-rule="evenodd" fill-rule="evenodd"></path>
<mask height="24" width="64" y="84" x="25" maskUnits="userSpaceOnUse" style="mask-type:alpha" id="mask1_3:135">
<path fill="white" d="M47.645 85.1166C47.645 85.1166 47.7885 90.5831 46.8576 93.6029C44.7276 100.713 26.6261 98.345 25.7943 102.727C29.227 103.652 89.4384 110.771 88.0612 105.195C83.8571 95.3914 68.7623 103.983 61.2685 93.6029C60.1748 90.9905 61.032 84 61.032 84L47.645 85.1166Z" clip-rule="evenodd" fill-rule="evenodd"></path>
</mask>
<g mask="url(#mask1_3:135)">
<g opacity="0.348749" style="mix-blend-mode:multiply">
<path fill="#E89A85" d="M46 86C46 86 50.6496 94.6783 62.6412 95.8591C68.4514 95.5379 59.6538 87.3455 59.6538 87.3455L46 86Z" clip-rule="evenodd" fill-rule="evenodd"></path>
</g>
</g>
<path fill="#3C6DB8" d="M26.6609 101.395C23.5141 102.572 21.609 105.548 21 110.089C20.9921 110.148 90.3787 110.151 90.3787 110.151C90.3787 110.151 90.3742 104.473 83.4984 100.538C58.6651 103.746 29.3254 102.263 26.6609 101.395Z" clip-rule="evenodd" fill-rule="evenodd"></path>
<mask height="11" width="70" y="100" x="21" maskUnits="userSpaceOnUse" style="mask-type:alpha" id="mask2_3:135">
<path fill="white" d="M26.6609 101.395C23.5141 102.572 21.609 105.548 21 110.089C20.9921 110.148 90.3787 110.151 90.3787 110.151C90.3787 110.151 90.3742 104.473 83.4984 100.538C58.6651 103.746 29.3254 102.263 26.6609 101.395Z" clip-rule="evenodd" fill-rule="evenodd"></path>
</mask>
<g mask="url(#mask2_3:135)">
<path fill="#305792" d="M32.8819 113.132C32.8819 112.174 33.4357 105.195 33.4357 105.195L34.7722 113.132H77.7498L77.7499 105.879L79.5992 113.132C79.5992 113.132 57.7852 119.247 57.426 119.247C57.0667 119.247 32.8819 114.09 32.8819 113.132Z" clip-rule="evenodd" fill-rule="evenodd"></path>
</g>
<path fill="#408EA4" d="M44.357 45.7956C44.357 45.7956 43.6606 37.4521 41.7652 35.3485C40.9662 35.7634 43.4316 41.5757 41.9755 44.0861C40.1674 47.2033 36.582 49.3168 35.1924 53.5033C31.3393 61.0706 33.293 69.0001 36.6163 78.6438C41.5471 86.2989 44.7942 88.4695 44.7942 88.4695C44.7942 88.4695 34.8984 89.6343 28.0666 87.3504C26.9659 87.2791 25.3616 83.5343 24.4489 83.3793C23.3221 83.1879 22.4569 87.5371 21.0326 87.1309C15.3839 87.1381 13.0021 86.3998 10 85.1111C13.4454 83.4717 18.2789 77.2438 17.3694 70.0371C16.9108 60.408 7.77544 53.3254 23.3775 33.2353C33.4138 20.312 29.9707 17.6306 47.1635 16.9318C69.0022 9.59901 67.7995 19.9561 79.6567 27.5224C96.5272 38.2879 93.3546 45.1265 93.1865 59.7001C91.3214 72.3394 100.527 76.9167 100.527 76.9167C100.527 76.9167 94.9455 85.044 90.5804 85.0289C89.6369 85.5453 88.5443 81.1272 87.8162 81.4327C87.7803 82.7051 87.6662 84.283 86.1133 86.7565C83.0306 87.7357 80.0906 88.1472 77.2933 87.9909C76.5359 87.9725 76.2643 85.1868 75.6452 82.3708C75.0445 84.7489 74.1481 88.4281 73.3733 88.5118C67.9088 89.899 61.6756 89.0344 61.3004 88.3227C73.102 81.1862 75.7622 71.7272 75.7622 71.7272C75.7622 71.7272 81.0743 50.2924 71.0874 47.3153C65.5863 46.7713 64.3088 34.932 63.032 34.838C61.2167 34.7044 60.5324 45.4106 60.1091 45.2978C50.6575 47.7229 44.357 45.7956 44.357 45.7956Z" clip-rule="evenodd" fill-rule="evenodd"></path>
<mask height="76" width="91" y="14" x="10" maskUnits="userSpaceOnUse" style="mask-type:alpha" id="mask3_3:135">
<path fill="white" d="M44.357 45.7956C44.357 45.7956 43.6606 37.4521 41.7652 35.3485C40.9662 35.7634 43.4316 41.5757 41.9755 44.0861C40.1674 47.2033 36.582 49.3168 35.1924 53.5033C31.3393 61.0706 33.293 69.0001 36.6163 78.6438C41.5471 86.2989 44.7942 88.4695 44.7942 88.4695C44.7942 88.4695 34.8984 89.6343 28.0666 87.3504C26.9659 87.2791 25.3616 83.5343 24.4489 83.3793C23.3221 83.1879 22.4569 87.5371 21.0326 87.1309C15.3839 87.1381 13.0021 86.3998 10 85.1111C13.4454 83.4717 18.2789 77.2438 17.3694 70.0371C16.9108 60.408 7.77544 53.3254 23.3775 33.2353C33.4138 20.312 29.9707 17.6306 47.1635 16.9318C69.0022 9.59901 67.7995 19.9561 79.6567 27.5224C96.5272 38.2879 93.3546 45.1265 93.1865 59.7001C91.3214 72.3394 100.527 76.9167 100.527 76.9167C100.527 76.9167 94.9455 85.044 90.5804 85.0289C89.6369 85.5453 88.5443 81.1272 87.8162 81.4327C87.7803 82.7051 87.6662 84.283 86.1133 86.7565C83.0306 87.7357 80.0906 88.1472 77.2933 87.9909C76.5359 87.9725 76.2643 85.1868 75.6452 82.3708C75.0445 84.7489 74.1481 88.4281 73.3733 88.5118C67.9088 89.899 61.6756 89.0344 61.3004 88.3227C73.102 81.1862 75.7622 71.7272 75.7622 71.7272C75.7622 71.7272 81.0743 50.2924 71.0874 47.3153C65.5863 46.7713 64.3088 34.932 63.032 34.838C61.2167 34.7044 60.5324 45.4106 60.1091 45.2978C50.6575 47.7229 44.357 45.7956 44.357 45.7956Z" clip-rule="evenodd" fill-rule="evenodd"></path>
</mask>
<g mask="url(#mask3_3:135)">
<g opacity="0.28876" style="mix-blend-mode:multiply">
<path fill="#437A8A" d="M30.4144 31.762C30.4144 31.762 21.6999 40.7927 21.717 52.2075C17.3725 53.5156 17.4575 59.4572 17.4575 59.4572C17.4575 59.4572 19.7691 69.3508 32.7433 70.2745C42.3565 69.5422 30.4144 31.762 30.4144 31.762Z" clip-rule="evenodd" fill-rule="evenodd"></path>
</g>
<g opacity="0.28876" style="mix-blend-mode:multiply">
<path fill="#437A8A" d="M79.6567 38.6532C79.6567 38.6532 83.1934 49.1014 83.0937 51.31C90.2238 53.1216 90.2624 59.0915 90.2624 59.0915C90.2624 59.0915 78.626 58.474 78.7876 57.7098C78.9491 56.9456 79.6567 38.6532 79.6567 38.6532Z" clip-rule="evenodd" fill-rule="evenodd"></path>
</g>
</g>
<path fill="#FFB5B5" d="M75.6508 61.4917C75.6508 61.4917 78.7464 51.2669 86.5113 54.2508C94.2761 57.2346 89.4145 72.8395 77.1844 70.7098C66.6182 70.0657 75.6508 61.4917 75.6508 61.4917Z" clip-rule="evenodd" fill-rule="evenodd"></path>
<path fill="#FFB5B5" d="M32.1855 61.4917C32.1855 61.4917 29.09 51.2669 21.3251 54.2508C13.5602 57.2346 18.4218 72.8395 30.6519 70.7098C41.2181 70.0657 32.1855 61.4917 32.1855 61.4917Z" clip-rule="evenodd" fill-rule="evenodd"></path>
<path fill="#C26B6B" d="M84.9541 59.9685C84.9541 59.6233 84.6743 59.3436 84.3292 59.3436C82.0498 59.3436 79.9819 60.8302 78.1227 63.7143C77.9357 64.0043 78.0192 64.3911 78.3093 64.5781C78.5994 64.7651 78.9861 64.6815 79.1731 64.3915C79.7401 63.512 80.315 62.7888 80.8979 62.2182C82.1584 62.5072 82.7698 62.9848 82.8747 63.6267C82.9303 63.9673 83.2516 64.1983 83.5922 64.1427C83.9328 64.087 84.1638 63.7658 84.1081 63.4252C83.9454 62.4294 83.2463 61.7159 82.086 61.272C82.8218 60.8173 83.5696 60.5934 84.3292 60.5934C84.6743 60.5934 84.9541 60.3136 84.9541 59.9685Z" clip-rule="evenodd" fill-rule="evenodd"></path>
<path fill="#C26B6B" d="M21.6584 59.9685C21.6584 59.6233 21.9382 59.3436 22.2833 59.3436C24.5627 59.3436 26.6305 60.8302 28.4898 63.7143C28.6768 64.0043 28.5932 64.3911 28.3031 64.5781C28.0131 64.7651 27.6263 64.6815 27.4393 64.3915C26.8724 63.512 26.2974 62.7888 25.7145 62.2182C24.454 62.5072 23.8427 62.9848 23.7378 63.6267C23.6821 63.9673 23.3609 64.1983 23.0203 64.1427C22.6797 64.087 22.4487 63.7658 22.5043 63.4252C22.667 62.4294 23.3661 61.7159 24.5264 61.272C23.7907 60.8173 23.0429 60.5934 22.2833 60.5934C21.9382 60.5934 21.6584 60.3136 21.6584 59.9685Z" clip-rule="evenodd" fill-rule="evenodd"></path>
<path fill="white" d="M83.8652 71.548C83.8652 71.548 78.8523 68.2431 81.2486 65.4938C83.0234 64.0864 83.8652 66.7983 83.8652 66.7983C83.8652 66.7983 85.6529 64.0174 87.3933 66.0099C89.1337 68.0024 83.8652 71.548 83.8652 71.548Z" clip-rule="evenodd" fill-rule="evenodd"></path>
<path fill="white" d="M24.2332 73.9986C24.2332 73.9986 19.2202 70.6938 21.6165 67.9445C23.3914 66.5371 24.2332 69.249 24.2332 69.249C24.2332 69.249 26.0208 66.468 27.7612 68.4606C29.5016 70.4531 24.2332 73.9986 24.2332 73.9986Z" clip-rule="evenodd" fill-rule="evenodd"></path>
<path fill="#FFCCCC" d="M28.6109 50.8793C27.9386 36.3315 39.5518 24.1691 54.1152 24.1691C68.4348 24.1691 79.9542 35.9437 79.6407 50.2598L79.3121 65.2597C79.017 78.7327 68.2127 89.6097 54.7419 89.9952C41.3931 90.7762 29.9796 80.4985 29.3624 67.1411L28.6109 50.8793Z" clip-rule="evenodd" fill-rule="evenodd"></path>
<mask height="67" width="52" y="24" x="28" maskUnits="userSpaceOnUse" style="mask-type:alpha" id="mask4_3:135">
<path fill="white" d="M28.6109 50.8793C27.9386 36.3315 39.5518 24.1691 54.1152 24.1691C68.4348 24.1691 79.9542 35.9437 79.6407 50.2598L79.3121 65.2597C79.017 78.7327 68.2127 89.6097 54.7419 89.9952C41.3931 90.7762 29.9796 80.4985 29.3624 67.1411L28.6109 50.8793Z" clip-rule="evenodd" fill-rule="evenodd"></path>
</mask>
<g mask="url(#mask4_3:135)">
<g opacity="0.348749" style="mix-blend-mode:multiply">
<path fill="#E89A85" d="M61.1118 49.0791L62.0515 43.6673C62.0515 43.6673 64.963 46.7761 67.4618 47.8068C74.264 50.6124 77.3769 55.8045 79.6567 60.7165C84.7725 71.7387 68.1352 31.762 68.1352 31.762H54.233L61.1118 49.0791Z" clip-rule="evenodd" fill-rule="evenodd"></path>
</g>
<g opacity="0.348749" style="mix-blend-mode:multiply">
<path fill="#E89A85" d="M32.2777 51.8158C32.2777 51.8158 40.5979 51.0679 42.8238 47.0425C44.4807 50.8469 49.1586 50.8853 49.1586 50.8853V36.2309H33.669L32.2777 51.8158Z" clip-rule="evenodd" fill-rule="evenodd"></path>
</g>
<ellipse fill="#6E3636" ry="4.08439" rx="2.45063" cy="65.6177" cx="65.7698"></ellipse>
<ellipse fill="#FF5988" ry="1.63376" rx="2.85907" cy="72.4438" cx="72.1491" opacity="0.624907"></ellipse>
<ellipse fill="#FF5988" ry="1.63376" rx="2.85907" cy="72.4438" cx="37.0591" opacity="0.624907"></ellipse>
<ellipse fill="#6E3636" ry="4.08439" rx="2.45063" cy="65.6177" cx="42.8972"></ellipse>
<path fill="#F28091" d="M53.3987 64.8459C53.6966 64.7664 54.0062 64.9259 54.0903 65.2021C54.8039 67.5471 54.6781 69.4795 53.679 70.9708L53.5762 71.1185C52.3648 72.7934 53.6105 74.039 56.2237 73.3691C56.5225 73.2925 56.8303 73.455 56.9112 73.7321C56.9921 74.0092 56.8155 74.2959 56.5167 74.3725C53.032 75.2658 50.8609 73.1565 52.5711 70.6488L52.6468 70.5411C53.5326 69.3163 53.6667 67.6431 53.0115 65.4901C52.9275 65.2138 53.1008 64.9254 53.3987 64.8459Z"></path>
<path stroke-linecap="round" stroke-width="0.980253" stroke="#F28091" d="M51.066 78.6253C51.066 78.6253 56.659 79.0789 58.4179 76.2371"></path>
<path fill="#6E3636" d="M60.9293 58.5456C60.9293 58.5456 63.7032 53.7247 68.9369 56.5257C68.0645 52.6893 62.9028 52.2359 61.1706 55.7647C60.733 56.656 60.9293 58.5456 60.9293 58.5456Z" clip-rule="evenodd" fill-rule="evenodd"></path>
<path fill="#6E3636" d="M46.8204 59.3625C46.8204 59.3625 44.0464 54.5416 38.8128 57.3426C39.6852 53.5062 44.8469 53.0528 46.5791 56.5816C47.0167 57.4729 46.8204 59.3625 46.8204 59.3625Z" clip-rule="evenodd" fill-rule="evenodd"></path>
</g>
<path fill="#408EA4" d="M43.8976 38.8043C43.8976 38.8043 41.324 49.6092 32.2777 51.8158C27.9289 56.8824 29.3936 66.9333 29.3936 66.9333C29.3936 66.9333 21.4745 46.4099 34.47 29.5618C48.7242 13.8177 77.9511 27.9886 80.0141 43.637C82.0658 54.6935 79.4652 62.4204 79.4652 62.4204C79.4652 62.4204 77.7427 54.9797 74.3733 50.9298C71.0039 46.8799 63.1468 44.2544 60.1561 38.8905C60.1138 44.9373 62.8501 49.2913 62.8501 49.2913C62.8501 49.2913 54.3542 52.3498 47.9325 50.9298C44.1906 49.6622 43.8976 38.8043 43.8976 38.8043Z" clip-rule="evenodd" fill-rule="evenodd"></path>
<mask height="45" width="54" y="22" x="27" maskUnits="userSpaceOnUse" style="mask-type:alpha" id="mask5_3:135">
<path fill="white" d="M43.8976 38.8043C43.8976 38.8043 41.324 49.6092 32.2777 51.8158C27.9289 56.8824 29.3936 66.9333 29.3936 66.9333C29.3936 66.9333 21.4745 46.4099 34.47 29.5618C48.7242 13.8177 77.9511 27.9886 80.0141 43.637C82.0658 54.6935 79.4652 62.4204 79.4652 62.4204C79.4652 62.4204 77.7427 54.9797 74.3733 50.9298C71.0039 46.8799 63.1468 44.2544 60.1561 38.8905C60.1138 44.9373 62.8501 49.2913 62.8501 49.2913C62.8501 49.2913 54.3542 52.3498 47.9325 50.9298C44.1906 49.6622 43.8976 38.8043 43.8976 38.8043Z" clip-rule="evenodd" fill-rule="evenodd"></path>
</mask>
<g mask="url(#mask5_3:135)">
<g opacity="0.28876" style="mix-blend-mode:multiply">
<path fill="#437A8A" d="M27.6972 40.7907C27.6972 40.7907 37.0402 23.7029 61.7883 28.2432C74.4367 30.6077 79.6567 47.4303 79.6567 47.4303C79.6567 47.4303 76.2065 32.9346 75.2859 31.762C74.3653 30.5893 49.4577 21.1299 47.7638 22.0708C46.0698 23.0116 33.669 30.1761 33.669 30.1761L27.6972 40.7907Z" clip-rule="evenodd" fill-rule="evenodd"></path>
</g>
</g>
<path fill="#FF80CE" d="M26.2301 53.9656C26.2301 53.9656 28.6646 25.9369 53.522 26.1368C77.6487 26.0511 80.898 53.9656 80.898 53.9656C80.898 53.9656 81.4066 34.9462 73.0094 28.1572C68.5857 24.4524 62.211 21.9212 53.7241 21.5625C46.0572 21.4191 41.2025 23.1229 36.561 25.9013C23.4793 33.2018 26.2301 53.9656 26.2301 53.9656Z" clip-rule="evenodd" fill-rule="evenodd"></path>
<mask height="33" width="56" y="21" x="25" maskUnits="userSpaceOnUse" style="mask-type:alpha" id="mask6_3:135">
<path fill="white" d="M26.2301 53.9656C26.2301 53.9656 28.6646 25.9369 53.522 26.1368C77.6487 26.0511 80.898 53.9656 80.898 53.9656C80.898 53.9656 81.4066 34.9462 73.0094 28.1572C68.5857 24.4524 62.211 21.9212 53.7241 21.5625C46.0572 21.4191 41.2025 23.1229 36.561 25.9013C23.4793 33.2018 26.2301 53.9656 26.2301 53.9656Z" clip-rule="evenodd" fill-rule="evenodd"></path>
</mask>
<g mask="url(#mask6_3:135)">
<g opacity="0.502558" style="mix-blend-mode:multiply">
<path fill="#E574BA" d="M47.7638 21.5638C47.7638 21.5638 49.9037 24.1129 53.3347 24.9806C53.5734 25.7117 55.695 27.5665 58.0687 27.514C59.3621 27.4854 60.6822 27.8864 61.9754 25.4194C64.6793 25.1829 65.1293 24.5992 65.5596 23.2147C66.7502 19.3832 47.7638 21.5638 47.7638 21.5638Z" clip-rule="evenodd" fill-rule="evenodd"></path>
</g>
</g>
<path fill="#FF8ED4" d="M37.3331 5.13614C37.233 9.20841 45.2292 23.3671 56.9373 25.8553C59.7999 13.9449 44.6118 8.69818 41.691 6.1582C38.7702 3.61822 37.4333 1.06388 37.3331 5.13614Z" clip-rule="evenodd" fill-rule="evenodd"></path>
<mask height="23" width="21" y="3" x="37" maskUnits="userSpaceOnUse" style="mask-type:alpha" id="mask7_3:135">
<path fill="white" d="M37.3331 5.13614C37.233 9.20841 45.2292 23.3671 56.9373 25.8553C59.7999 13.9449 44.6118 8.69818 41.691 6.1582C38.7702 3.61822 37.4333 1.06388 37.3331 5.13614Z" clip-rule="evenodd" fill-rule="evenodd"></path>
</mask>
<g mask="url(#mask7_3:135)">
<g opacity="0.355562" style="mix-blend-mode:multiply">
<path fill="#EA97CA" d="M37.9053 3C37.9053 3 38.653 11.4075 45.7474 15.4165C50.281 17.7089 53.3156 23.1049 55.3833 24.2652C57.451 25.4255 50.9671 27.3152 50.8369 26.9687C50.7067 26.6221 36.9854 19.0619 36.1905 17.6547C35.3957 16.2475 33.079 3.9059 33.079 3.9059L37.9053 3Z" clip-rule="evenodd" fill-rule="evenodd"></path>
</g>
</g>
<path fill="#FF8ED4" d="M75.5822 9.52487C75.6632 12.816 69.0637 24.1944 59.6037 26.2053C57.2908 16.5796 69.7012 12.4036 72.0612 10.3509C74.4211 8.29811 75.5013 6.23374 75.5822 9.52487Z" clip-rule="evenodd" fill-rule="evenodd"></path>
<mask height="20" width="17" y="7" x="59" maskUnits="userSpaceOnUse" style="mask-type:alpha" id="mask8_3:135">
<path fill="white" d="M75.5822 9.52487C75.6632 12.816 69.0637 24.1944 59.6037 26.2053C57.2908 16.5796 69.7012 12.4036 72.0612 10.3509C74.4211 8.29811 75.5013 6.23374 75.5822 9.52487Z" clip-rule="evenodd" fill-rule="evenodd"></path>
</mask>
<g mask="url(#mask8_3:135)">
<g opacity="0.355562" style="mix-blend-mode:multiply">
<path fill="#EA97CA" d="M58.7259 24.3447C58.7259 24.3447 60.3619 20.4942 63.788 20.4926C67.2141 20.491 75.4856 12.1854 75.5829 7.79848C75.6803 3.41159 80.4328 14.0013 80.4328 14.0013C80.4328 14.0013 77.0195 26.1856 76.2364 26.0793C75.4534 25.973 57.6422 27.1926 57.6422 27.1926L58.7259 24.3447Z" clip-rule="evenodd" fill-rule="evenodd"></path>
</g>
</g>
<path fill="#FF8ED4" d="M53.5982 24.2203C53.5982 24.2203 53.6775 21.6199 56.1006 21.5128C58.5237 21.4058 61.2607 22.6373 61.5192 24.2381C61.7776 25.8388 61.2208 27.681 56.8843 27.1224C53.5051 26.8862 53.5982 24.2203 53.5982 24.2203Z" clip-rule="evenodd" fill-rule="evenodd"></path>
<mask height="7" width="9" y="21" x="53" maskUnits="userSpaceOnUse" style="mask-type:alpha" id="mask9_3:135">
<path fill="white" d="M53.5982 24.2203C53.5982 24.2203 53.6775 21.6199 56.1006 21.5128C58.5237 21.4058 61.2607 22.6373 61.5192 24.2381C61.7776 25.8388 61.2208 27.681 56.8843 27.1224C53.5051 26.8862 53.5982 24.2203 53.5982 24.2203Z" clip-rule="evenodd" fill-rule="evenodd"></path>
</mask>
<g mask="url(#mask9_3:135)">
<g opacity="0.355562" style="mix-blend-mode:multiply">
<path fill="#EA97CA" d="M53.5957 24.3654C53.5957 24.3654 56.5652 26.0165 59.3014 25.1808C60.5802 24.6141 61.5721 22.0708 61.5721 22.0708C61.5721 22.0708 64.7858 24.0972 64.5808 24.3654C64.3758 24.6336 60.2826 28.7563 59.938 28.6909C59.5934 28.6255 51.7238 26.9925 51.8853 26.7384C52.0468 26.4844 53.5957 24.3654 53.5957 24.3654Z" clip-rule="evenodd" fill-rule="evenodd"></path>
</g>
</g>
</g>
</svg>
