<?xml version="1.0" standalone="no"?><!DOCTYPE svg PUBLIC "-//W3C//DTD SVG 1.1//EN" "http://www.w3.org/Graphics/SVG/1.1/DTD/svg11.dtd"><svg t="1641456741428" class="icon" viewBox="0 0 1024 1024" version="1.1" xmlns="http://www.w3.org/2000/svg" p-id="5676" xmlns:xlink="http://www.w3.org/1999/xlink" width="200" height="200"><defs><style type="text/css"></style></defs><path d="M601.6 256l76.8 96H896v480H128V352h201.6l76.8-96h195.2m30.4-64H376l-76.8 96H128c-35.2 0-64 28.8-64 64v480c0 35.2 28.8 64 64 64h768c35.2 0 64-28.8 64-64V352c0-35.2-28.8-64-64-64H708.8L632 192zM512 384c-106.4 0-192 85.6-192 192s85.6 192 192 192 192-85.6 192-192-85.6-192-192-192z m0 320c-70.4 0-128-57.6-128-128s57.6-128 128-128 128 57.6 128 128-57.6 128-128 128z" p-id="5677"></path></svg>