<?xml version="1.0" standalone="no"?><!DOCTYPE svg PUBLIC "-//W3C//DTD SVG 1.1//EN" "http://www.w3.org/Graphics/SVG/1.1/DTD/svg11.dtd"><svg t="1641456671494" class="icon" viewBox="0 0 1024 1024" version="1.1" xmlns="http://www.w3.org/2000/svg" p-id="4826" xmlns:xlink="http://www.w3.org/1999/xlink" width="200" height="200"><defs><style type="text/css"></style></defs><path d="M284.928 207.872H40.448a30.72 30.72 0 1 1 0-61.44h244.224a30.72 30.72 0 0 1 0 61.44zM284.928 475.648H40.448a30.72 30.72 0 0 1 0-61.44h244.224a30.72 30.72 0 0 1 0 61.44zM284.928 742.4H40.448a30.72 30.72 0 0 1 0-61.44h244.224a30.72 30.72 0 0 1 0 61.44zM614.4 1011.2H40.448a30.72 30.72 0 1 1 0-61.44H614.4a30.72 30.72 0 1 1 0 61.44zM626.688 576.512A286.72 286.72 0 0 1 423.936 87.04 286.72 286.72 0 0 1 829.44 492.544a284.928 284.928 0 0 1-202.752 83.968z m0-512a225.28 225.28 0 1 0 159.232 65.792 224.512 224.512 0 0 0-159.232-65.792z" fill="" p-id="4827"></path><path d="M980.224 674.048a30.72 30.72 0 0 1-21.76-8.96l-172.544-172.544a30.72 30.72 0 1 1 43.52-43.52l172.544 172.544a30.72 30.72 0 0 1-21.76 51.2z" fill="" p-id="4828"></path><path d="M736 981.504m-30.72 0a30.72 30.72 0 1 0 61.44 0 30.72 30.72 0 1 0-61.44 0Z" fill="" p-id="4829"></path><path d="M859.136 981.504m-30.72 0a30.72 30.72 0 1 0 61.44 0 30.72 30.72 0 1 0-61.44 0Z" fill="" p-id="4830"></path><path d="M982.528 981.504m-30.72 0a30.72 30.72 0 1 0 61.44 0 30.72 30.72 0 1 0-61.44 0Z" fill="" p-id="4831"></path></svg>